PathFileType	4	(X/Y/Z)	output.trc
DataRate	CameraRate	NumFrames	NumMarkers	Units	OrigDataRate	OrigDataStartFrame	OrigNumFrames
1.0	1.0	78	3	mm	1.0	141	1125
Frame#	Time	Joint1X	Joint1Y	Joint1Z	Joint2X	Joint2Y	Joint2Z	Joint3X	Joint3Y	Joint3Z
										
141	140.00000	-0.24848	1.48636	1.79592	-0.30160	1.24243	1.92032	-0.32105	1.01716	1.86546
142	141.00000	-0.24813	1.48650	1.79650	-0.30129	1.24270	1.92092	-0.32092	1.01749	1.86629
143	142.00000	-0.24757	1.48679	1.79725	-0.30095	1.24285	1.92124	-0.32079	1.01761	1.86684
144	143.00000	-0.24679	1.48720	1.79820	-0.30063	1.24285	1.92125	-0.32063	1.01754	1.86703
145	144.00000	-0.24577	1.48766	1.79930	-0.30038	1.24271	1.92101	-0.32039	1.01730	1.86688
146	145.00000	-0.24460	1.48808	1.80048	-0.30022	1.24247	1.92062	-0.32003	1.01694	1.86649
147	146.00000	-0.24336	1.48841	1.80164	-0.30015	1.24219	1.92025	-0.31951	1.01657	1.86598
148	147.00000	-0.24215	1.48861	1.80268	-0.30013	1.24196	1.92003	-0.31882	1.01628	1.86548
149	148.00000	-0.24105	1.48872	1.80357	-0.30010	1.24185	1.92003	-0.31797	1.01617	1.86505
150	149.00000	-0.24007	1.48881	1.80430	-0.29997	1.24191	1.92026	-0.31697	1.01632	1.86469
151	150.00000	-0.23920	1.48900	1.80490	-0.29966	1.24219	1.92065	-0.31585	1.01678	1.86434
152	151.00000	-0.23836	1.48937	1.80539	-0.29909	1.24270	1.92112	-0.31464	1.01753	1.86394
153	152.00000	-0.23749	1.48999	1.80579	-0.29822	1.24340	1.92155	-0.31337	1.01848	1.86346
154	153.00000	-0.23652	1.49082	1.80610	-0.29708	1.24420	1.92187	-0.31209	1.01951	1.86289
155	154.00000	-0.23542	1.49178	1.80633	-0.29574	1.24499	1.92200	-0.31085	1.02047	1.86226
156	155.00000	-0.23415	1.49275	1.80651	-0.29430	1.24567	1.92192	-0.30971	1.02123	1.86157
157	156.00000	-0.23267	1.49362	1.80669	-0.29286	1.24615	1.92165	-0.30872	1.02172	1.86076
158	157.00000	-0.23093	1.49433	1.80697	-0.29148	1.24641	1.92119	-0.30792	1.02201	1.85970
159	158.00000	-0.22888	1.49488	1.80746	-0.29020	1.24648	1.92055	-0.30733	1.02223	1.85816
160	159.00000	-0.22651	1.49537	1.80826	-0.28898	1.24644	1.91972	-0.30695	1.02258	1.85592
161	160.00000	-0.22389	1.49592	1.80940	-0.28780	1.24638	1.91868	-0.30675	1.02321	1.85278
162	161.00000	-0.22119	1.49661	1.81085	-0.28664	1.24636	1.91740	-0.30670	1.02421	1.84872
163	162.00000	-0.21866	1.49747	1.81247	-0.28550	1.24639	1.91589	-0.30674	1.02554	1.84391
164	163.00000	-0.21654	1.49846	1.81409	-0.28446	1.24645	1.91420	-0.30683	1.02704	1.83870
165	164.00000	-0.21495	1.49946	1.81554	-0.28354	1.24647	1.91239	-0.30691	1.02845	1.83356
166	165.00000	-0.21382	1.50034	1.81671	-0.28275	1.24639	1.91053	-0.30693	1.02957	1.82890
167	166.00000	-0.21289	1.50102	1.81760	-0.28205	1.24618	1.90867	-0.30687	1.03028	1.82494
168	167.00000	-0.21172	1.50146	1.81833	-0.28131	1.24588	1.90678	-0.30674	1.03058	1.82164
169	168.00000	-0.20986	1.50173	1.81905	-0.28040	1.24556	1.90483	-0.30657	1.03069	1.81868
170	169.00000	-0.20701	1.50195	1.81993	-0.27921	1.24533	1.90276	-0.30639	1.03091	1.81560
171	170.00000	-0.20311	1.50227	1.82108	-0.27774	1.24531	1.90057	-0.30628	1.03164	1.81188
172	171.00000	-0.19838	1.50283	1.82249	-0.27606	1.24562	1.89830	-0.30627	1.03319	1.80715
173	172.00000	-0.19321	1.50369	1.82413	-0.27432	1.24631	1.89605	-0.30644	1.03581	1.80124
174	173.00000	-0.18806	1.50483	1.82589	-0.27267	1.24734	1.89388	-0.30685	1.03950	1.79424
175	174.00000	-0.18328	1.50618	1.82771	-0.27124	1.24863	1.89180	-0.30758	1.04409	1.78641
176	175.00000	-0.17904	1.50759	1.82954	-0.27009	1.25002	1.88972	-0.30873	1.04924	1.77810
177	176.00000	-0.17532	1.50889	1.83141	-0.26919	1.25131	1.88751	-0.31041	1.05453	1.76968
178	177.00000	-0.17193	1.50996	1.83331	-0.26845	1.25240	1.88499	-0.31269	1.05962	1.76148
179	178.00000	-0.16864	1.51074	1.83523	-0.26779	1.25327	1.88213	-0.31556	1.06432	1.75373
180	179.00000	-0.16522	1.51128	1.83708	-0.26711	1.25404	1.87900	-0.31893	1.06875	1.74658
181	180.00000	-0.16151	1.51172	1.83872	-0.26637	1.25496	1.87586	-0.32260	1.07328	1.74009
182	181.00000	-0.15745	1.51223	1.84002	-0.26555	1.25632	1.87307	-0.32634	1.07850	1.73423
183	182.00000	-0.15306	1.51298	1.84086	-0.26466	1.25835	1.87097	-0.32990	1.08498	1.72884
184	183.00000	-0.14842	1.51404	1.84125	-0.26374	1.26112	1.86978	-0.33309	1.09312	1.72375
185	184.00000	-0.14369	1.51538	1.84128	-0.26280	1.26449	1.86950	-0.33585	1.10297	1.71875
186	185.00000	-0.13901	1.51688	1.84114	-0.26186	1.26817	1.86990	-0.33821	1.11417	1.71371
187	186.00000	-0.13453	1.51835	1.84107	-0.26091	1.27178	1.87055	-0.34033	1.12606	1.70857
188	187.00000	-0.13033	1.51960	1.84125	-0.25995	1.27497	1.87093	-0.34242	1.13783	1.70337
189	188.00000	-0.12646	1.52048	1.84184	-0.25900	1.27751	1.87055	-0.34471	1.14876	1.69816
190	189.00000	-0.12287	1.52093	1.84284	-0.25808	1.27936	1.86905	-0.34739	1.15832	1.69301
191	190.00000	-0.11949	1.52094	1.84417	-0.25726	1.28067	1.86630	-0.35055	1.16632	1.68793
192	191.00000	-0.11622	1.52060	1.84566	-0.25663	1.28167	1.86245	-0.35414	1.17285	1.68294
193	192.00000	-0.11301	1.52001	1.84709	-0.25628	1.28267	1.85785	-0.35799	1.17824	1.67803
194	193.00000	-0.10980	1.51929	1.84823	-0.25627	1.28391	1.85302	-0.36182	1.18304	1.67325
195	194.00000	-0.10658	1.51854	1.84895	-0.25660	1.28553	1.84848	-0.36530	1.18796	1.66861
196	195.00000	-0.10336	1.51783	1.84920	-0.25723	1.28757	1.84470	-0.36814	1.19384	1.66415
197	196.00000	-0.10017	1.51721	1.84902	-0.25806	1.28998	1.84191	-0.37016	1.20158	1.65979
198	197.00000	-0.09702	1.51665	1.84856	-0.25901	1.29263	1.84009	-0.37132	1.21196	1.65542
199	198.00000	-0.09389	1.51612	1.84799	-0.25999	1.29543	1.83897	-0.37178	1.22539	1.65089
200	199.00000	-0.09079	1.51555	1.84748	-0.26100	1.29830	1.83810	-0.37182	1.24179	1.64610
201	200.00000	-0.08773	1.51488	1.84715	-0.26210	1.30122	1.83701	-0.37175	1.26047	1.64104
202	201.00000	-0.08474	1.51405	1.84704	-0.26337	1.30421	1.83537	-0.37178	1.28031	1.63586
203	202.00000	-0.08186	1.51306	1.84716	-0.26490	1.30732	1.83309	-0.37200	1.30000	1.63081
204	203.00000	-0.07917	1.51196	1.84748	-0.26673	1.31057	1.83039	-0.37230	1.31834	1.62624
205	204.00000	-0.07672	1.51082	1.84794	-0.26882	1.31392	1.82767	-0.37245	1.33449	1.62251
206	205.00000	-0.07457	1.50973	1.84849	-0.27104	1.31725	1.82545	-0.37225	1.34803	1.61990
207	206.00000	-0.07275	1.50879	1.84905	-0.27318	1.32039	1.82413	-0.37156	1.35896	1.61855
208	207.00000	-0.07127	1.50807	1.84955	-0.27501	1.32309	1.82388	-0.37040	1.36757	1.61844
209	208.00000	-0.07013	1.50758	1.84990	-0.27635	1.32514	1.82463	-0.36892	1.37435	1.61941
210	209.00000	-0.06930	1.50732	1.85004	-0.27708	1.32640	1.82611	-0.36731	1.37987	1.62118
211	210.00000	-0.06869	1.50727	1.84991	-0.27722	1.32691	1.82793	-0.36568	1.38474	1.62348
212	211.00000	-0.06822	1.50740	1.84956	-0.27688	1.32689	1.82975	-0.36405	1.38958	1.62601
213	212.00000	-0.06772	1.50768	1.84907	-0.27626	1.32671	1.83131	-0.36233	1.39491	1.62858
214	213.00000	-0.06706	1.50812	1.84856	-0.27559	1.32684	1.83245	-0.36037	1.40120	1.63106
215	214.00000	-0.06610	1.50870	1.84818	-0.27504	1.32768	1.83311	-0.35811	1.40871	1.63340
216	215.00000	-0.06477	1.50940	1.84803	-0.27476	1.32949	1.83330	-0.35561	1.41748	1.63557
217	216.00000	-0.06309	1.51020	1.84816	-0.27478	1.33227	1.83309	-0.35307	1.42722	1.63757
218	217.00000	-0.06119	1.51103	1.84855	-0.27506	1.33576	1.83258	-0.35081	1.43728	1.63939
